<?xml version="1.0" encoding="utf-8"?>
<!-- Generator: Adobe Illustrator 17.1.0, SVG Export Plug-In . SVG Version: 6.00 Build 0)  -->
<!DOCTYPE svg PUBLIC "-//W3C//DTD SVG 1.1 Tiny//EN" "http://www.w3.org/Graphics/SVG/1.1/DTD/svg11-tiny.dtd">
<svg version="1.1" baseProfile="tiny" id="Layer_1" xmlns="http://www.w3.org/2000/svg" xmlns:xlink="http://www.w3.org/1999/xlink"
	 x="0px" y="0px" width="14px" height="14px" viewBox="0 0 14 14" overflow="visible" xml:space="preserve">
<path id="colourise" d="M12.7,11.7c0,0.5-0.4,1-1,1H2.3c-0.6,0-1-0.4-1-1V2.3c0-0.6,0.3-1,1-1h9.4c0.5,0,1,0.3,1,1V11.7z M10.8,2.8
	c-0.5-0.2-1.7-0.2-1.7-0.2C8.3,2.6,8,2.9,7.7,3.3c-0.2,0.4-0.2,1-0.2,1.4v0.1v0.3v0.4H6.7v1.3h0.9v4.6h1.7V6.9h1.4l0.1-1.3H9.3V5.1
	V4.6V4.5C9.2,4.2,9.5,4,10,4c0,0,0.3,0,0.8,0.2V2.8z"/>
</svg>
