<?xml version="1.0" encoding="utf-8"?>
<!-- Generator: Adobe Illustrator 18.1.1, SVG Export Plug-In . SVG Version: 6.00 Build 0)  -->
<svg version="1.1" id="Layer_1" xmlns="http://www.w3.org/2000/svg" xmlns:xlink="http://www.w3.org/1999/xlink" x="0px" y="0px"
	 viewBox="0 0 300 100" enable-background="new 0 0 300 100" xml:space="preserve">
<g>
	<path d="M71,79.9c-0.2-0.2-31.5-15.1-53.7,0L15.9,78c23.2-15.9,54.7-0.7,56.1,0L71,79.9z"/>
</g>
<g>
	<path d="M43.1,90.6c-22.7,0-41.4-18.7-41.4-41.4S20.3,7.5,43.1,7.5s41.4,18.7,41.4,41.4S66,90.6,43.1,90.6z M43.1,9.9
		C21.5,9.9,4,27.4,4,49.2c0,21.5,17.5,39,39,39s39-17.5,39-39C82.3,27.4,64.8,9.9,43.1,9.9z"/>
</g>
<g>
	<path d="M115.5,70.6h7.6V53.4l-15.6-26.7h-5.7v-3.8h16.6v4h-5.7l12.8,22.7l13-22.7h-5.9v-4h16.6v4h-5.7l-15.6,26.5v17.3h7.6v4
		h-19.9C115.5,74.7,115.5,70.6,115.5,70.6z"/>
	<path d="M149.1,65.7c0-5.9,5.4-9.9,12.5-9.9c3.5,0,8.5,1.2,10.2,1.9v-5.4c0-1.9-0.5-3.5-1.7-4.7c-1.4-1.7-4-2.8-7.6-2.8
		c-3.1,0-4.7,0.9-5.9,1.7c0.2,0.7,0.5,1.2,0.5,2.1c0,1.7-1.2,3.1-3.1,3.1s-3.1-1.4-3.1-3.1c0-3.8,4.5-7.3,12.1-7.3
		c4.5,0,8,1.4,10.2,3.5c1.7,1.7,2.4,4,2.4,6.6v19.9h5.4v3.5h-9.2v-4.5c-2.8,2.8-7.1,5.2-11.6,5.2C153.5,75.4,149.1,71.1,149.1,65.7z
		 M171.5,66.4v-5.7c-2.6-0.9-6.4-1.7-9.9-1.7c-5.9,0-8.8,2.8-8.8,6.4c0,3.5,2.6,6.4,7.8,6.4C165.4,71.8,169.2,69.2,171.5,66.4z"/>
	<path d="M208.2,51c-1.7,0-3.1-1.2-3.1-3.1c0-0.5,0-1.4,0.5-2.1c-1.2-0.9-3.5-1.4-6.4-1.4c-5,0-8,2.8-8,5.4c0,3.3,3.5,4.3,9.2,5.7
		c6.2,1.4,12.3,3.3,12.3,9.9c0,5.9-5.9,9.7-13,9.7c-4.7,0-9.2-1.4-11.6-3.8c-1.2-1.2-1.9-2.4-1.9-4s1.2-3.3,2.8-3.3
		c1.9,0,3.1,1.4,3.1,2.8c0,0.7-0.2,1.4-0.7,2.4c0.9,0.9,4,2.4,8,2.4c5.2,0,9-2.4,9-5.9c0-3.5-3.8-5-8.5-5.9c-7.6-1.9-13-3.5-13-9.9
		c0-5,5-9.2,12.1-9.2c4.7,0,8.3,1.4,10.2,3.3c1.2,1.2,1.7,2.4,1.7,3.5C211,49.6,209.9,51,208.2,51z"/>
	<path d="M217.7,20.7v-3.8h9.5v31c3.3-4,8-7.1,12.8-7.1c4,0,6.9,1.4,8.5,3.5c1.4,1.9,2.1,4.7,2.1,7.8v18.9h5.4v3.5h-15.1v-3.5h5.4
		V52.9c0-2.6-0.5-4.5-1.7-5.7c-1.2-1.7-3.3-2.4-5.9-2.4c-4.7,0-9,3.1-12.1,6.9v19.4h5.4v3.5h-14.4v-3.5h5.4V20.7H217.7z"/>
	<path d="M261.7,65.7c0-5.9,5.4-9.9,12.5-9.9c3.5,0,8.5,1.2,10.2,1.9v-5.4c0-1.9-0.5-3.5-1.7-4.7c-1.4-1.7-4-2.8-7.6-2.8
		c-3.1,0-4.7,0.9-5.9,1.7c0.2,0.7,0.5,1.2,0.5,2.1c0,1.7-1.2,3.1-3.1,3.1s-3.1-1.4-3.1-3.1c0-3.8,4.5-7.3,12.1-7.3
		c4.5,0,8,1.4,10.2,3.5c1.7,1.7,2.4,4,2.4,6.6v19.9h5.4v3.5h-9.2v-4.5c-2.8,2.8-7.1,5.2-11.6,5.2C265.9,75.4,261.7,71.1,261.7,65.7z
		 M284.1,66.4v-5.7c-2.6-0.9-6.4-1.7-9.9-1.7c-5.9,0-8.8,2.8-8.8,6.4c0,3.5,2.6,6.4,7.8,6.4C278,71.8,281.8,69.2,284.1,66.4z"/>
</g>
<g>
	<path d="M72.4,39.9C72.4,39.9,72.2,39.9,72.4,39.9L72.4,39.9C72.2,39.9,72.2,39.9,72.4,39.9C72.2,39.9,72.2,39.9,72.4,39.9
		C72.2,39.9,72.2,39.9,72.4,39.9C72.2,39.9,72.2,39.9,72.4,39.9C71,40.2,61,41.6,55.6,47.5c-5.7,6.2-4.5,13.2-4.5,13.5
		c0,0,0,0,0,0.2c-0.2,0.9-0.5,1.9-0.7,3.1c-0.2,0.9-0.5,2.1-0.5,3.1c-0.2-1.7-0.5-3.3-0.7-5c-0.2-1.4-0.7-2.8-0.9-4c0,0,0,0,0-0.2
		c0-0.5,1.7-9.7-5.9-17.7c-7.1-7.6-20.1-9.7-21.8-9.9c-0.2,0-0.2,0-0.2,0c-0.2,0-0.5,0.2-0.7,0.5c0,0.2,0.2,0.7,0.5,0.7h0.2
		c0.5,0,3.1,0.9,6.4,9c3.5,8.8,6.6,13.5,10.6,16.3c2.1,1.4,5.2,1.9,7.3,1.9c1.2,0,2.1,0,2.8-0.2c0.2,1.4,0.7,2.6,0.9,4
		c0.5,3.1,0.7,6.4,0.7,9.5h1.7c0-2.6,0.2-5,0.5-7.6c0.2-0.9,0.5-1.9,0.7-2.8c0.5,0,1.2,0,1.9,0c1.7,0,4-0.2,5.7-1.4
		c3.1-2.1,5.4-5.7,8-12.3c2.4-6.2,4.5-6.6,4.7-6.6l0,0c0.2,0,0.5-0.2,0.5-0.7C72.9,40.2,72.6,39.9,72.4,39.9z M45.4,52.2
		c0.7,1.7,1.2,3.3,1.7,5l0,0c-0.5,0-1.4,0.2-2.4,0.2c-1.9,0-4.7-0.2-6.6-1.7c-3.8-2.6-6.9-7.3-10.2-15.9c-1.7-4.3-3.3-6.6-4.7-8
		c4.5,0.9,13.2,3.5,18.2,9c4.7,5.2,5.7,10.9,5.7,14.2c-2.5-8.8-12.3-16.8-15.6-18C36.7,39.5,44,49.2,45.4,52.2z M66.5,47.3
		c-2.6,6.4-5,9.9-7.8,11.8c-2.1,1.4-5.4,1.2-6.6,1.2l0,0c2-5.8,9.2-14,11.6-14.9c-2.6,0.9-8.4,6.3-10.9,11.4
		c-0.2,0.5-0.5,1.2-0.7,1.7c0.2-2.4,0.9-6.4,4.3-9.9c3.8-4,9.7-5.9,13.2-6.6C68.8,42.8,67.7,44.4,66.5,47.3z"/>
</g>
</svg>
