<?xml version="1.0" encoding="utf-8"?>
<!-- Generator: Adobe Illustrator 18.1.1, SVG Export Plug-In . SVG Version: 6.00 Build 0)  -->
<svg version="1.1" id="Layer_1" xmlns="http://www.w3.org/2000/svg" xmlns:xlink="http://www.w3.org/1999/xlink" x="0px" y="0px"
	 viewBox="0 0 126.8 37.5" enable-background="new 0 0 126.8 37.5" xml:space="preserve">
<g>
	<path d="M30,31.4c-0.1-0.1-13.3-6.4-22.7,0l-0.6-0.8c9.8-6.7,23.1-0.3,23.7,0L30,31.4z"/>
</g>
<g>
	<path d="M18.2,35.9C8.6,35.9,0.7,28,0.7,18.4S8.6,0.8,18.2,0.8s17.5,7.9,17.5,17.5S27.9,35.9,18.2,35.9z M18.2,1.8
		C9.1,1.8,1.7,9.2,1.7,18.4c0,9.1,7.4,16.5,16.5,16.5c9.1,0,16.5-7.4,16.5-16.5C34.8,9.2,27.4,1.8,18.2,1.8z"/>
</g>
<g>
	<path d="M48.8,28.8h3.2v-7.3l-6.6-11.3h-2.4V8.6h7v1.7h-2.4l5.4,9.6l5.5-9.6H56V8.6h7v1.7h-2.4L54,21.5v7.3h3.2v1.7h-8.4V28.8z"/>
	<path d="M63,26.7c0-2.5,2.3-4.2,5.3-4.2c1.5,0,3.6,0.5,4.3,0.8v-2.3c0-0.8-0.2-1.5-0.7-2c-0.6-0.7-1.7-1.2-3.2-1.2
		c-1.3,0-2,0.4-2.5,0.7c0.1,0.3,0.2,0.5,0.2,0.9c0,0.7-0.5,1.3-1.3,1.3c-0.8,0-1.3-0.6-1.3-1.3c0-1.6,1.9-3.1,5.1-3.1
		c1.9,0,3.4,0.6,4.3,1.5c0.7,0.7,1,1.7,1,2.8V29h2.3v1.5h-3.9v-1.9c-1.2,1.2-3,2.2-4.9,2.2C64.9,30.8,63,29,63,26.7z M72.5,27v-2.4
		c-1.1-0.4-2.7-0.7-4.2-0.7c-2.5,0-3.7,1.2-3.7,2.7s1.1,2.7,3.3,2.7C69.9,29.3,71.5,28.2,72.5,27z"/>
	<path d="M88,20.5c-0.7,0-1.3-0.5-1.3-1.3c0-0.2,0-0.6,0.2-0.9c-0.5-0.4-1.5-0.6-2.7-0.6c-2.1,0-3.4,1.2-3.4,2.3
		c0,1.4,1.5,1.8,3.9,2.4c2.6,0.6,5.2,1.4,5.2,4.2c0,2.5-2.5,4.1-5.5,4.1c-2,0-3.9-0.6-4.9-1.6c-0.5-0.5-0.8-1-0.8-1.7
		c0-0.7,0.5-1.4,1.2-1.4c0.8,0,1.3,0.6,1.3,1.2c0,0.3-0.1,0.6-0.3,1c0.4,0.4,1.7,1,3.4,1c2.2,0,3.8-1,3.8-2.5s-1.6-2.1-3.6-2.5
		c-3.2-0.8-5.5-1.5-5.5-4.2c0-2.1,2.1-3.9,5.1-3.9c2,0,3.5,0.6,4.3,1.4c0.5,0.5,0.7,1,0.7,1.5C89.2,19.9,88.7,20.5,88,20.5z"/>
	<path d="M92,7.7V6.1h4v13.1c1.4-1.7,3.4-3,5.4-3c1.7,0,2.9,0.6,3.6,1.5c0.6,0.8,0.9,2,0.9,3.3V29h2.3v1.5h-6.4V29h2.3v-7.7
		c0-1.1-0.2-1.9-0.7-2.4c-0.5-0.7-1.4-1-2.5-1c-2,0-3.8,1.3-5.1,2.9V29h2.3v1.5H92V29h2.3V7.7H92z"/>
	<path d="M110.6,26.7c0-2.5,2.3-4.2,5.3-4.2c1.5,0,3.6,0.5,4.3,0.8v-2.3c0-0.8-0.2-1.5-0.7-2c-0.6-0.7-1.7-1.2-3.2-1.2
		c-1.3,0-2,0.4-2.5,0.7c0.1,0.3,0.2,0.5,0.2,0.9c0,0.7-0.5,1.3-1.3,1.3c-0.8,0-1.3-0.6-1.3-1.3c0-1.6,1.9-3.1,5.1-3.1
		c1.9,0,3.4,0.6,4.3,1.5c0.7,0.7,1,1.7,1,2.8V29h2.3v1.5h-3.9v-1.9c-1.2,1.2-3,2.2-4.9,2.2C112.4,30.8,110.6,29,110.6,26.7z
		 M120.1,27v-2.4c-1.1-0.4-2.7-0.7-4.2-0.7c-2.5,0-3.7,1.2-3.7,2.7s1.1,2.7,3.3,2.7C117.5,29.3,119.1,28.2,120.1,27z"/>
</g>
<g>
	<path d="M30.6,14.5C30.6,14.5,30.5,14.5,30.6,14.5L30.6,14.5C30.5,14.5,30.5,14.5,30.6,14.5C30.5,14.5,30.5,14.5,30.6,14.5
		C30.5,14.5,30.5,14.5,30.6,14.5C30.5,14.5,30.5,14.5,30.6,14.5c-0.6,0.1-4.8,0.7-7.1,3.2c-2.4,2.6-1.9,5.6-1.9,5.7c0,0,0,0,0,0.1
		c-0.1,0.4-0.2,0.8-0.3,1.3c-0.1,0.4-0.2,0.9-0.2,1.3c-0.1-0.7-0.2-1.4-0.3-2.1c-0.1-0.6-0.3-1.2-0.4-1.7c0,0,0,0,0-0.1
		c0-0.2,0.7-4.1-2.5-7.5c-3-3.2-8.5-4.1-9.2-4.2c-0.1,0-0.1,0-0.1,0c-0.1,0-0.2,0.1-0.3,0.2c0,0.1,0.1,0.3,0.2,0.3l0.1,0
		c0.2,0,1.3,0.4,2.7,3.8c1.5,3.7,2.8,5.7,4.5,6.9c0.9,0.6,2.2,0.8,3.1,0.8c0.5,0,0.9,0,1.2-0.1c0.1,0.6,0.3,1.1,0.4,1.7
		c0.2,1.3,0.3,2.7,0.3,4h0.7c0-1.1,0.1-2.1,0.2-3.2c0.1-0.4,0.2-0.8,0.3-1.2c0.2,0,0.5,0,0.8,0c0.7,0,1.7-0.1,2.4-0.6
		c1.3-0.9,2.3-2.4,3.4-5.2c1-2.6,1.9-2.8,2-2.8c0,0,0,0,0,0c0.1,0,0.2-0.1,0.2-0.3C30.8,14.6,30.7,14.5,30.6,14.5z M16.8,16
		c0.9,1.1,1.8,2.4,2.4,3.7c0.3,0.7,0.5,1.4,0.7,2.1c0,0,0,0,0,0c-0.2,0-0.6,0.1-1,0.1c-0.8,0-2-0.1-2.8-0.7
		c-1.6-1.1-2.9-3.1-4.3-6.7c-0.7-1.8-1.4-2.8-2-3.4c1.9,0.4,5.6,1.5,7.7,3.8c2,2.2,2.4,4.6,2.4,6c-0.2-0.4-0.3-0.9-0.6-1.3
		C18.7,18.3,17.9,17.1,16.8,16c-0.9-1.2-2.1-2.2-3.5-2.7C14.7,13.9,15.8,14.9,16.8,16z M28.1,17.6c-1.1,2.7-2.1,4.2-3.3,5
		c-0.9,0.6-2.3,0.5-2.8,0.5c0,0,0,0,0,0c0.1-0.5,0.3-1,0.5-1.5c0.4-1,1.1-2,1.8-2.8c0.7-0.8,1.6-1.6,2.6-2c-1.1,0.4-2,1.1-2.7,2
		c-0.7,0.8-1.4,1.8-1.9,2.8c-0.1,0.2-0.2,0.5-0.3,0.7c0.1-1,0.4-2.7,1.8-4.2c1.6-1.7,4.1-2.5,5.6-2.8C29.1,15.7,28.6,16.4,28.1,17.6
		z"/>
</g>
</svg>
