<?xml version="1.0" encoding="utf-8"?>
<!-- Generator: Adobe Illustrator 18.1.1, SVG Export Plug-In . SVG Version: 6.00 Build 0)  -->
<svg version="1.1" id="Layer_1" xmlns="http://www.w3.org/2000/svg" xmlns:xlink="http://www.w3.org/1999/xlink" x="0px" y="0px"
	 viewBox="0 0 300 100" enable-background="new 0 0 300 100" xml:space="preserve">
<g>
	<path d="M72.6,80.7c-0.2-0.2-30.7-14.2-51.9,0.7l-1.4-1.8c22.2-15.7,52.9-1.4,54.3-0.7L72.6,80.7z"/>
</g>
<g>
	<path d="M45.8,93.7C22.6,94,3.2,75.1,2.9,51.9S21.3,9,44.7,8.7s42.6,18.5,42.9,41.7C87.9,73.7,69.2,93.3,45.8,93.7z M44.9,13
		c-21.1,0.2-38,17.4-37.8,38.7c0.2,21,17.4,37.9,38.4,37.7C66.5,89.2,83.4,72,83.2,51C83.3,29.7,66,12.8,44.9,13z"/>
</g>
<g>
	<path d="M73.4,42C73.4,42,73.3,42,73.4,42L73.4,42C73.3,42,73.3,42,73.4,42C73.3,42,73.3,42,73.4,42C73.3,42,73.3,42,73.4,42
		C73.3,42,73.3,42,73.4,42c-1.4,0.3-11,1.8-16.2,7.6c-5.4,6.1-4.2,12.8-4.2,13.1c0,0,0,0,0,0.2c-0.2,0.9-0.5,1.8-0.6,3
		c-0.2,0.9-0.5,2-0.4,3c-0.2-1.6-0.5-3.2-0.7-4.8c-0.2-1.4-0.7-2.7-0.9-3.9c0,0,0,0,0-0.2c0-0.5,1.5-9.4-5.9-17
		c-7-7.3-19.6-9.1-21.2-9.3c-0.2,0-0.2,0-0.2,0c-0.2,0-0.5,0.2-0.7,0.5c0,0.2,0.2,0.7,0.5,0.7l0.2,0c0.5,0,3,0.8,6.3,8.6
		c3.5,8.5,6.6,13,10.5,15.6c2,1.3,5.1,1.8,7.1,1.7c1.2,0,2,0,2.7-0.2c0.2,1.4,0.7,2.5,0.9,3.9c0.5,3,0.8,6.2,0.8,9.2l1.6,0
		c0-2.5,0.1-4.8,0.4-7.4c0.2-0.9,0.5-1.8,0.6-2.7c0.5,0,1.2,0,1.8,0c1.6,0,3.9-0.2,5.5-1.4c3-2.1,5.1-5.6,7.6-12
		c2.2-6,4.3-6.4,4.5-6.4l0,0c0.2,0,0.5-0.2,0.5-0.7C73.9,42.2,73.6,41.9,73.4,42z M47.5,54.2c0.7,1.6,1.2,3.2,1.7,4.8l0,0
		c-0.5,0-1.4,0.2-2.3,0.2c-1.8,0-4.5-0.1-6.4-1.6c-3.7-2.5-6.8-7-10.1-15.2c-1.7-4.1-3.3-6.3-4.7-7.7c4.4,0.8,12.8,3.2,17.7,8.5
		c4.6,5,5.7,10.5,5.7,13.7c-2.5-8.5-12.1-16.1-15.3-17.2C38.9,42,46.1,51.3,47.5,54.2z M67.8,49.2c-2.4,6.2-4.7,9.6-7.4,11.5
		c-2,1.4-5.2,1.2-6.4,1.2l0,0c1.9-5.6,8.7-13.7,11-14.6c-2.5,0.9-8,6.2-10.4,11.2c-0.2,0.5-0.5,1.2-0.7,1.7c0.2-2.3,0.8-6.2,4-9.6
		c3.6-3.9,9.3-5.8,12.7-6.6C70,44.8,69,46.4,67.8,49.2z"/>
</g>
<g>
	<path fill="#FFFFFF" d="M615.1,302.9c1.9,0,3.8,0,5.8,0c0,1.9,0,3.7,0,5.6c-6.4,0-12.8,0-19.3,0c0-1.8,0-3.6,0-5.6
		c1.5,0,3.1,0,4.6,0c1.3,0,1.3,0,1.3-1.3c0-13,0-26,0-39.1c0-0.4,0-0.7,0-1.2c-2,0-3.9,0-6,0c0-1.8,0-3.5,0-5.2
		c0-0.2,0.6-0.5,0.9-0.5c2.6,0,5.3,0,7.9,0c1.2,0,2.4,0,3.6,0c0.8,0,1,0.3,1,1c0,6.4,0,12.9,0,19.3c0,0.4,0,0.7,0,1.4
		c0.5-0.5,0.8-0.7,1.1-1c3.8-3.8,8.3-5.3,13.6-4.3c4.8,0.9,7.5,3.7,8.3,8.5c0.2,1.4,0.3,2.8,0.3,4.2c0,5.6,0,11.2,0,16.9
		c0,0.4,0,0.9,0.1,1.4c2,0,4,0,6,0c0,1.9,0,3.7,0,5.6c-4.5,0-8.9,0-13.5,0c0-0.4,0-0.8,0-1.2c0-8.1,0-16.1-0.1-24.2
		c0-2.2-0.7-4.2-3-5.2c-2.3-1-4.8-0.8-6.8,0.7c-2,1.4-3.8,3.1-5.7,4.7c-0.2,0.2-0.3,0.5-0.3,0.8c0,6.2,0,12.3,0,18.5
		C615,302.6,615.1,302.7,615.1,302.9z"/>
	<path fill="#FFFFFF" d="M506.8,264.4c-1.2,0-2.3,0-3.4,0c0-2,0-3.9,0-5.9c0.3,0,0.5-0.1,0.8-0.1c5.1,0,10.2,0,15.3,0
		c0.8,0,1.1,0.2,1,1c-0.1,1.4,0,2.7,0,4.1c0,0.6-0.2,0.9-0.9,0.9c-1.4,0-2.9,0-4.3,0c-0.6,0-0.9,0.2-1.2,0.7
		c-4.4,8.4-8.8,16.7-13.2,25c-0.2,0.3-0.3,0.6-0.3,0.9c0,3.7,0,7.4,0,11c0,0.1,0,0.3,0.1,0.5c1.6,0,3.2,0,4.8,0
		c0.9,0,1.2,0.2,1.1,1.1c-0.1,1.6,0,3.1,0,4.8c-6.6,0-13,0-19.6,0c0-1.9,0-3.8,0-5.9c2,0,3.9,0,5.9,0c0-0.4,0.1-0.7,0.1-1
		c0-3.4,0-6.9,0-10.3c0-0.4-0.1-0.9-0.3-1.3c-4.4-8.3-8.7-16.6-13.1-24.9c-0.3-0.6-0.7-0.8-1.3-0.8c-1.4,0-2.9,0-4.3,0
		c-0.3,0-0.7-0.3-0.7-0.5c-0.1-1.8,0-3.5,0-5.4c5.8,0,11.4,0,17.1,0c0,1.9,0,3.8,0,5.9c-1,0-2,0-3.3,0c3.4,6.5,6.6,12.9,9.8,19.2
		C500.1,277.3,503.4,270.9,506.8,264.4z"/>
	<path fill="#FFFFFF" d="M557.5,308.6c-1,0-1.8,0-2.7,0c-2.5,0-5.1,0-7.6,0c-0.7,0-1-0.2-1.2-0.9c-0.4-1.5-0.9-2.9-1.3-4.5
		c-1,0.9-1.9,1.8-2.8,2.6c-5.4,5.1-16.2,3.7-20.3-3.6c-2.4-4.2-3-8.7-2.8-13.4c0.2-4.9,1.8-9.2,5.3-12.8c4.6-4.6,13.2-6.7,19.9-1.6
		c0.3,0.2,0.6,0.5,1.1,0.8c0.3-0.9,0.6-1.6,0.8-2.4c0.2-0.5,0.4-0.8,1-0.7c3.2,0,6.5,0,9.7,0c0.6,0,0.9,0.1,0.9,0.8
		c0,1.4,0,2.7,0,4.1c0,0.6-0.3,0.8-0.9,0.8c-1.7,0-3.3,0-5.1,0c0,0.4-0.1,0.8-0.1,1.2c0,7.5,0,15.1,0,22.6c0,1,0.3,1.3,1.2,1.2
		c1.3-0.1,2.6,0,3.9,0c0.6,0,0.9,0.1,0.9,0.8C557.5,305.3,557.5,306.9,557.5,308.6z M544,289.1c0-2.7,0-5.5,0-8.2
		c0-0.7-0.2-1.2-0.8-1.5c-1.1-0.6-2.2-1.2-3.3-1.7c-3.8-1.4-7.7-0.4-10.1,2.4c-1.6,1.9-2.4,4.1-2.7,6.5c-0.6,4.2-0.5,8.3,1.2,12.2
		c1.7,3.8,5,5.4,9,4.4c2.5-0.6,4.3-2.3,5.9-4.2c0.4-0.5,0.7-1.2,0.7-1.8C544.1,294.5,544,291.8,544,289.1z"/>
	<path fill="#FFFFFF" d="M688.9,308.6c-0.8,0-1.4,0-2,0c-2.8,0-5.6,0-8.4,0c-0.6,0-0.9-0.2-1.1-0.8c-0.4-1.5-0.9-3-1.4-4.5
		c-1,0.9-1.8,1.8-2.7,2.6c-3.8,3.4-8.3,3.8-13,2.4c-4.2-1.3-7-4.2-8.5-8.3c-2.3-6.2-2.4-12.4,0.2-18.6c3.3-7.7,12.5-11.7,19.8-8.6
		c1.6,0.7,3.1,1.7,4.7,2.6c0.2-0.7,0.5-1.4,0.7-2.2c0.2-0.5,0.4-0.8,1-0.7c3.2,0,6.5,0,9.7,0c0.6,0,0.9,0.1,0.9,0.8
		c0,1.4,0,2.7,0,4.1c0,0.7-0.3,0.8-0.9,0.8c-1.7,0-3.3,0-5.1,0c0,0.4-0.1,0.8-0.1,1.2c0,7.5,0,15.1,0,22.6c0,1,0.3,1.3,1.3,1.2
		c1.3-0.1,2.6,0,3.9,0c0.6,0,0.9,0.2,0.9,0.8C688.9,305.4,688.9,306.9,688.9,308.6z M675.4,289.1c0-1.9,0-3.9,0-5.8
		c0-3.8,0-3.9-3.5-5.3c-4.3-1.8-9.5-1-12.1,4.4c-1.2,2.5-1.6,5.2-1.6,8c0,3.1,0.3,6.2,1.8,9.1c1.8,3.3,4.9,4.7,8.6,3.9
		c2.7-0.6,4.5-2.4,6.2-4.4c0.4-0.4,0.6-1.1,0.6-1.6C675.4,294.6,675.4,291.8,675.4,289.1z"/>
	<path fill="#FFFFFF" d="M572.3,304c0,1.4,0,2.5,0,3.7c0,0.7-0.2,1-1,1c-1.5-0.1-3.1,0-4.7,0c0-4.6,0-9.1,0-13.8c1.8,0,3.7,0,5.6,0
		c0,0.4,0,0.8,0.1,1.1c0.1,3.6,1.6,5.7,4.9,6.9c2.8,1,5.6,1.1,8.4,0.1c2.2-0.8,3-2.4,2.7-4.6c-0.2-1.2-0.7-2-1.8-2.5
		c-1.3-0.6-2.7-1.2-4.1-1.7c-2.7-0.9-5.4-1.7-8.1-2.6c-1.4-0.5-2.8-1.2-4.1-2.1c-4.8-3.2-4.8-11.2-0.2-14.8
		c4.7-3.7,12.9-3.8,17.6-0.2c0.7,0.5,1.3,1.2,2.1,1.9c0-1.1,0-2,0-3c0-0.7,0.2-1,0.9-1c1.4,0,2.7,0,4.1,0c0.4,0,0.8,0,0.8,0.6
		c0,4.1,0,8.2,0,12.4c-1.9,0-3.8,0-5.7,0c0-0.2-0.1-0.5-0.1-0.8c0.2-3.3-1.7-6-5.2-7.1c-2.6-0.8-5.2-0.9-7.8,0.1
		c-1.6,0.6-2.4,1.8-2.5,3.5c-0.1,1.7,0.6,3,2.1,3.6c2,0.9,4,1.6,6.1,2.3c2.5,0.9,5.1,1.7,7.6,2.6c3.4,1.3,5.6,3.7,5.9,7.5
		c0.3,3.9-0.9,7-4.1,9.3c-4.4,3.1-12.9,3.3-17.4-0.5C573.7,305.5,573.1,304.8,572.3,304z"/>
</g>
<text transform="matrix(1 0 0 1 101.332 76.0654)"><tspan x="0" y="0" font-family="'Archer-Semibold'" font-size="75.6891" letter-spacing="-6">Y</tspan><tspan x="42.1" y="0" font-family="'Archer-Semibold'" font-size="75.6891">as</tspan><tspan x="113.6" y="0" font-family="'Archer-Semibold'" font-size="75.6891">h</tspan><tspan x="155.4" y="0" font-family="'Archer-Semibold'" font-size="75.6891">a</tspan></text>
</svg>
