<?xml version="1.0" encoding="utf-8"?>
<!-- Generator: Adobe Illustrator 17.1.0, SVG Export Plug-In . SVG Version: 6.00 Build 0)  -->
<!DOCTYPE svg PUBLIC "-//W3C//DTD SVG 1.1//EN" "http://www.w3.org/Graphics/SVG/1.1/DTD/svg11.dtd">
<svg version="1.1" id="Layer_1" xmlns="http://www.w3.org/2000/svg" xmlns:xlink="http://www.w3.org/1999/xlink" x="0px" y="0px"
	 width="15px" height="15px" viewBox="0.5 0.5 15 15" enable-background="new 0.5 0.5 15 15" xml:space="preserve">
<g id="colourise">
	<path d="M7.9,3.5c1.3,0.8,2.7,1.9,3.9,2.7l0,0C10.5,8,9.2,9.9,8,11.7l-0.1,0.1c-0.2,0.1-0.5,0.1-0.6,0c-0.5-0.1-0.8-0.2-1.3-0.6
		c-0.6-0.2-1.1-0.6-1.4-1.1C4.2,9.9,4.1,9.8,4.1,9.4c0-0.1,0-0.1,0-0.2s0-0.3,0.1-0.4C5.3,7.3,6.5,5.4,7.9,3.5L7.9,3.5z"/>
	<path d="M12.3,5.4c-1.2-0.7-2.6-1.8-3.9-2.6c0,0,0,0,0-0.1c0.2-0.2,0.4-0.6,0.5-0.8C9.3,1.5,9.7,1.4,10,1.6
		c0.2,0.1,0.5,0.2,0.6,0.3c0.7,0.5,1.4,1.1,2,1.5c0.3,0.2,0.5,0.3,0.5,0.7c0,0.1,0,0.2-0.1,0.5C12.7,4.9,12.5,5.1,12.3,5.4L12.3,5.4
		z"/>
	<path d="M7.2,12.6L7.2,12.6C7.1,12.7,7,12.7,7,12.8c-1.1,0.6-2,1.1-3.2,1.4c-0.3,0.2-0.5,0.3-0.6,0.3H3.2c-0.1,0-0.1,0-0.2-0.1
		c-0.1,0-0.1,0-0.1-0.2c0-0.3,0-0.6,0-0.8c0-0.6,0.1-1.2,0.1-1.8c0.1-0.6,0.1-1.1,0.2-1.6c0,0.2,0.2,0.5,0.5,0.6
		c0.3,0.5,0.7,0.7,1.1,1.1c0.3,0.3,0.6,0.6,1.4,0.8C6.6,12.7,7.2,12.6,7.2,12.6z"/>
</g>
</svg>
