<?xml version="1.0" encoding="utf-8"?>
<!-- Generator: Adobe Illustrator 17.1.0, SVG Export Plug-In . SVG Version: 6.00 Build 0)  -->
<!DOCTYPE svg PUBLIC "-//W3C//DTD SVG 1.1 Tiny//EN" "http://www.w3.org/Graphics/SVG/1.1/DTD/svg11-tiny.dtd">
<svg version="1.1" baseProfile="tiny" id="Layer_1" xmlns="http://www.w3.org/2000/svg" xmlns:xlink="http://www.w3.org/1999/xlink"
	 x="0px" y="0px" width="14px" height="14px" viewBox="0 0 14 14" overflow="visible" xml:space="preserve">
<path id="colourise" d="M12.4,7.3c-0.7,3-3.9,4.7-6.8,4.7C3.3,12,1.3,11.1,0,9.1c0.7,0.6,1.6,1,2.5,1c1,0,1.9-0.4,2.6-1.1
	c-0.3,0-1-0.2-1-0.6c0-0.3,0.4-0.6,0.6-0.6C4.1,7.9,3.4,7.6,3.1,6.9c0.3-0.3,0.6-0.4,1-0.4C3.2,6.4,2.6,5.9,2.5,5.1
	C2.6,5,2.9,5,3.2,5h0.1C2.6,4.6,2,4,2.1,3.2V3.1c1.2,0.4,2.4,1,3.6,1.7c0.3,0.3,0.7,0.5,1,0.9c0.4-1.2,1-2.8,2.2-3.5
	c0,0.2-0.1,0.3-0.2,0.4C9,2.2,9.5,2.2,9.8,2c0,0.4-0.4,0.4-0.7,0.6c0.4-0.1,0.8-0.4,1.1-0.4c0.1,0,0.2,0,0.2,0.2
	c0,0.3-1,0.4-1.2,0.5c1.6-0.2,2.8,1.3,3.2,2.8c0.2,0.1,0.3,0.1,0.5,0.1c0.3,0,0.9-0.1,1.1-0.3c-0.3,0.6-1,0.9-1.6,1
	c0.3,0.2,0.8,0.2,1.1,0.2c0.2,0,0.3,0,0.4,0C13.7,7.1,13.1,7.3,12.4,7.3z"/>
</svg>
