<?xml version="1.0" encoding="utf-8"?>
<!-- Generator: Adobe Illustrator 18.1.1, SVG Export Plug-In . SVG Version: 6.00 Build 0)  -->
<svg version="1.0" id="Layer_1" xmlns="http://www.w3.org/2000/svg" xmlns:xlink="http://www.w3.org/1999/xlink" x="0px" y="0px"
	 width="17px" height="17px" viewBox="0 0 17 17" enable-background="new 0 0 17 17" xml:space="preserve">
<g id="colourise">
	<path d="M16.2,13.6c0.2,0.3,0.2,0.7,0,1.1c-0.2,0.3-0.6,0.5-0.9,0.5H2.1c-0.4,0-0.7-0.2-0.9-0.5c-0.2-0.3-0.2-0.7,0-1.1l6.6-12
		C7.9,1.2,8.3,1,8.7,1c0.4,0,0.8,0.2,1,0.6L16.2,13.6z M9.7,5.6c0-0.1,0-0.1-0.1-0.2c0,0-0.1-0.1-0.2-0.1H7.9
		c-0.1,0-0.1,0.1-0.2,0.1c0,0-0.1,0.1-0.1,0.2l0.1,3.9c0,0.1,0.1,0.2,0.2,0.2h1.3c0.1,0,0.2-0.1,0.2-0.2L9.7,5.6z M9.6,11.1
		c0-0.2-0.1-0.3-0.2-0.3H8c-0.1,0-0.2,0.1-0.2,0.3v1.6C7.8,12.9,7.9,13,8,13h1.4c0.1,0,0.2-0.1,0.2-0.3V11.1z"/>
</g>
</svg>
